<svg xmlns="http://www.w3.org/2000/svg" xmlns:xlink="http://www.w3.org/1999/xlink" width="4701" zoomAndPan="magnify" viewBox="0 0 3525.75 688.499979" height="918" preserveAspectRatio="xMidYMid meet" version="1.0"><defs><g/><clipPath id="564e230b14"><rect x="0" width="2648" y="0" height="539"/></clipPath><clipPath id="43d91d33cc"><path d="M 1.15625 0 L 325.058594 0 L 325.058594 323.902344 L 1.15625 323.902344 Z M 1.15625 0 " clip-rule="nonzero"/></clipPath><clipPath id="58d5c714b6"><path d="M 0.15625 0 L 324.058594 0 L 324.058594 323.902344 L 0.15625 323.902344 Z M 0.15625 0 " clip-rule="nonzero"/></clipPath><clipPath id="64a264c9d3"><rect x="0" width="325" y="0" height="324"/></clipPath><clipPath id="ca5a012526"><path d="M 5.660156 363.46875 L 329.5625 363.46875 L 329.5625 687.371094 L 5.660156 687.371094 Z M 5.660156 363.46875 " clip-rule="nonzero"/></clipPath><clipPath id="6accc67593"><path d="M 0.660156 0.46875 L 324.5625 0.46875 L 324.5625 324.371094 L 0.660156 324.371094 Z M 0.660156 0.46875 " clip-rule="nonzero"/></clipPath><clipPath id="2af5cb2ee6"><rect x="0" width="325" y="0" height="325"/></clipPath><clipPath id="5f218a6142"><path d="M 357.886719 363.46875 L 681.789062 363.46875 L 681.789062 687.371094 L 357.886719 687.371094 Z M 357.886719 363.46875 " clip-rule="nonzero"/></clipPath><clipPath id="f1eb8e80d7"><path d="M 0.886719 0.46875 L 324.789062 0.46875 L 324.789062 324.371094 L 0.886719 324.371094 Z M 0.886719 0.46875 " clip-rule="nonzero"/></clipPath><clipPath id="352ab65fcd"><rect x="0" width="325" y="0" height="325"/></clipPath><clipPath id="d3f10b53b6"><path d="M 357.886719 0 L 681.789062 0 L 681.789062 323.902344 L 357.886719 323.902344 Z M 357.886719 0 " clip-rule="nonzero"/></clipPath><clipPath id="0612aa8827"><path d="M 0.886719 0 L 324.789062 0 L 324.789062 323.902344 L 0.886719 323.902344 Z M 0.886719 0 " clip-rule="nonzero"/></clipPath><clipPath id="e7cafbb3af"><rect x="0" width="325" y="0" height="324"/></clipPath></defs><g transform="matrix(1, 0, 0, 1, 774, 74)"><g clip-path="url(#564e230b14)"><g fill="#052f57" fill-opacity="1"><g transform="translate(0.499737, 422.415939)"><g><path d="M 90.578125 0 L 36.609375 0 L 36.609375 -281.75 L 100.40625 -281.75 L 213.53125 -100.203125 L 218.53125 -100.984375 L 218.53125 -281.75 L 272.109375 -281.75 L 272.109375 0 L 215.0625 0 L 95.390625 -193.859375 L 90.578125 -193.09375 Z M 90.578125 0 "/></g></g><g transform="translate(309.420597, 422.415939)"><g><path d="M 92.3125 -123.71875 L 92.3125 -46.640625 L 226.828125 -46.640625 L 226.828125 0 L 36.609375 0 L 36.609375 -281.75 L 223.734375 -281.75 L 223.734375 -235.109375 L 92.3125 -235.109375 L 92.3125 -169.203125 L 207.171875 -169.203125 L 207.171875 -123.71875 Z M 92.3125 -123.71875 "/></g></g><g transform="translate(551.662345, 422.415939)"><g><path d="M 61.859375 0 L 4.8125 0 L 88.265625 -144.921875 L 8.859375 -281.75 L 68.03125 -281.75 L 126.421875 -180.765625 L 131.234375 -180.765625 L 190.59375 -281.75 L 246.859375 -281.75 L 167.46875 -144.921875 L 250.90625 0 L 191.9375 0 L 129.3125 -108.6875 L 124.484375 -108.6875 Z M 61.859375 0 "/></g></g></g><g fill="#052f57" fill-opacity="1"><g transform="translate(807.394061, 422.415939)"><g><path d="M 225.859375 -281.75 L 225.859375 -234.921875 L 144.53125 -234.921875 L 144.53125 0 L 89.03125 0 L 89.03125 -234.921875 L 7.703125 -234.921875 L 7.703125 -281.75 Z M 225.859375 -281.75 "/></g></g></g><g fill="#052f57" fill-opacity="1"><g transform="translate(1034.218716, 422.415939)"><g><path d="M 153.96875 4.046875 C 128.019531 4.046875 105.148438 -1.347656 85.359375 -12.140625 C 65.578125 -22.929688 50.097656 -39.148438 38.921875 -60.796875 C 27.742188 -82.441406 22.15625 -109.132812 22.15625 -140.875 C 22.15625 -172.601562 27.742188 -199.289062 38.921875 -220.9375 C 50.097656 -242.59375 65.578125 -258.816406 85.359375 -269.609375 C 105.148438 -280.398438 128.019531 -285.796875 153.96875 -285.796875 C 181.082031 -285.796875 204.113281 -280.492188 223.0625 -269.890625 C 242.007812 -259.296875 255.53125 -243.140625 263.625 -221.421875 L 222.96875 -196.5625 L 218.15625 -196.75 C 212.113281 -211.40625 203.921875 -221.910156 193.578125 -228.265625 C 183.234375 -234.628906 170.03125 -237.8125 153.96875 -237.8125 C 130.59375 -237.8125 112.351562 -230.066406 99.25 -214.578125 C 86.144531 -199.097656 79.59375 -174.53125 79.59375 -140.875 C 79.59375 -107.34375 86.144531 -82.832031 99.25 -67.34375 C 112.351562 -51.863281 130.59375 -44.125 153.96875 -44.125 C 190.59375 -44.125 213.015625 -61.921875 221.234375 -97.515625 L 226.046875 -97.515625 L 267.09375 -76.125 C 259.382812 -49.394531 246.21875 -29.347656 227.59375 -15.984375 C 208.96875 -2.628906 184.425781 4.046875 153.96875 4.046875 Z M 153.96875 4.046875 "/></g></g></g><g fill="#052f57" fill-opacity="1"><g transform="translate(1307.294756, 422.415939)"><g><path d="M 153.59375 4.046875 C 127.769531 4.046875 104.992188 -1.21875 85.265625 -11.75 C 65.546875 -22.289062 50.097656 -38.382812 38.921875 -60.03125 C 27.742188 -81.675781 22.15625 -108.625 22.15625 -140.875 C 22.15625 -173.113281 27.742188 -200.054688 38.921875 -221.703125 C 50.097656 -243.359375 65.546875 -259.453125 85.265625 -269.984375 C 104.992188 -280.523438 127.769531 -285.796875 153.59375 -285.796875 C 179.414062 -285.796875 202.15625 -280.554688 221.8125 -270.078125 C 241.46875 -259.609375 256.851562 -243.515625 267.96875 -221.796875 C 279.082031 -200.085938 284.640625 -173.113281 284.640625 -140.875 C 284.640625 -108.625 279.082031 -81.640625 267.96875 -59.921875 C 256.851562 -38.210938 241.46875 -22.125 221.8125 -11.65625 C 202.15625 -1.1875 179.414062 4.046875 153.59375 4.046875 Z M 153.59375 -44.328125 C 177.488281 -44.328125 195.726562 -52 208.3125 -67.34375 C 220.90625 -82.695312 227.203125 -107.207031 227.203125 -140.875 C 227.203125 -174.53125 220.90625 -199.066406 208.3125 -214.484375 C 195.726562 -229.898438 177.488281 -237.609375 153.59375 -237.609375 C 129.5625 -237.609375 111.21875 -229.898438 98.5625 -214.484375 C 85.914062 -199.066406 79.59375 -174.53125 79.59375 -140.875 C 79.59375 -107.207031 85.914062 -82.695312 98.5625 -67.34375 C 111.21875 -52 129.5625 -44.328125 153.59375 -44.328125 Z M 153.59375 -44.328125 "/></g></g></g><g fill="#052f57" fill-opacity="1"><g transform="translate(1614.288489, 422.415939)"><g><path d="M 137.984375 -281.75 C 183.722656 -281.75 218.632812 -269.925781 242.71875 -246.28125 C 266.8125 -222.644531 278.859375 -187.507812 278.859375 -140.875 C 278.859375 -94.363281 266.8125 -59.253906 242.71875 -35.546875 C 218.632812 -11.847656 183.722656 0 137.984375 0 L 36.609375 0 L 36.609375 -281.75 Z M 134.703125 -46.828125 C 163.734375 -46.828125 185.441406 -54.242188 199.828125 -69.078125 C 214.222656 -83.921875 221.421875 -107.851562 221.421875 -140.875 C 221.421875 -173.882812 214.222656 -197.8125 199.828125 -212.65625 C 185.441406 -227.5 163.734375 -234.921875 134.703125 -234.921875 L 92.3125 -234.921875 L 92.3125 -46.828125 Z M 134.703125 -46.828125 "/></g></g></g><g fill="#052f57" fill-opacity="1"><g transform="translate(1915.500733, 422.415939)"><g><path d="M 92.3125 0 L 36.609375 0 L 36.609375 -281.75 L 92.3125 -281.75 Z M 92.3125 0 "/></g></g></g><g fill="#052f57" fill-opacity="1"><g transform="translate(2044.619186, 422.415939)"><g><path d="M 90.578125 0 L 36.609375 0 L 36.609375 -281.75 L 100.40625 -281.75 L 213.53125 -100.203125 L 218.53125 -100.984375 L 218.53125 -281.75 L 272.109375 -281.75 L 272.109375 0 L 215.0625 0 L 95.390625 -193.859375 L 90.578125 -193.09375 Z M 90.578125 0 "/></g></g></g><g fill="#052f57" fill-opacity="1"><g transform="translate(2353.540187, 422.415939)"><g><path d="M 136.828125 4.046875 C 113.316406 4.046875 92.984375 -1.316406 75.828125 -12.046875 C 58.679688 -22.773438 45.445312 -38.960938 36.125 -60.609375 C 26.8125 -82.253906 22.15625 -109.007812 22.15625 -140.875 C 22.15625 -172.988281 27.742188 -199.867188 38.921875 -221.515625 C 50.097656 -243.171875 65.609375 -259.296875 85.453125 -269.890625 C 105.304688 -280.492188 128.335938 -285.796875 154.546875 -285.796875 C 181.523438 -285.796875 204.519531 -280.785156 223.53125 -270.765625 C 242.550781 -260.742188 255.914062 -245.835938 263.625 -226.046875 L 222.96875 -201.390625 L 218.15625 -201.578125 C 212.375 -214.171875 204.242188 -223.359375 193.765625 -229.140625 C 183.296875 -234.921875 170.222656 -237.8125 154.546875 -237.8125 C 130.265625 -237.8125 111.703125 -230.132812 98.859375 -214.78125 C 86.015625 -199.425781 79.59375 -174.789062 79.59375 -140.875 C 79.59375 -106.820312 85.597656 -82.085938 97.609375 -66.671875 C 109.617188 -51.253906 127.378906 -43.546875 150.890625 -43.546875 C 171.191406 -43.546875 186.160156 -48.109375 195.796875 -57.234375 C 205.429688 -66.359375 210.25 -79.976562 210.25 -98.09375 L 210.25 -110.234375 L 143.5625 -110.234375 L 143.5625 -155.515625 L 265.5625 -155.515625 L 265.5625 0 L 212.375 0 L 212.375 -37.765625 L 208.328125 -38.34375 C 202.546875 -24.851562 193.773438 -14.414062 182.015625 -7.03125 C 170.253906 0.351562 155.191406 4.046875 136.828125 4.046875 Z M 136.828125 4.046875 "/></g></g></g></g></g><g clip-path="url(#43d91d33cc)"><g transform="matrix(1, 0, 0, 1, 1, 0)"><g clip-path="url(#64a264c9d3)"><g clip-path="url(#58d5c714b6)"><path fill="#0675b2" d="M 0.15625 0 L 324.058594 0 L 324.058594 323.902344 L 0.15625 323.902344 Z M 0.15625 0 " fill-opacity="1" fill-rule="nonzero"/></g></g></g></g><g clip-path="url(#ca5a012526)"><g transform="matrix(1, 0, 0, 1, 5, 363)"><g clip-path="url(#2af5cb2ee6)"><g clip-path="url(#6accc67593)"><path fill="#052f57" d="M 0.660156 0.46875 L 324.5625 0.46875 L 324.5625 324.371094 L 0.660156 324.371094 Z M 0.660156 0.46875 " fill-opacity="1" fill-rule="nonzero"/></g></g></g></g><g clip-path="url(#5f218a6142)"><g transform="matrix(1, 0, 0, 1, 357, 363)"><g clip-path="url(#352ab65fcd)"><g clip-path="url(#f1eb8e80d7)"><path fill="#0675b2" d="M 0.886719 0.46875 L 324.789062 0.46875 L 324.789062 324.371094 L 0.886719 324.371094 Z M 0.886719 0.46875 " fill-opacity="1" fill-rule="nonzero"/></g></g></g></g><g clip-path="url(#d3f10b53b6)"><g transform="matrix(1, 0, 0, 1, 357, 0)"><g clip-path="url(#e7cafbb3af)"><g clip-path="url(#0612aa8827)"><path fill="#052f57" d="M 0.886719 0 L 324.789062 0 L 324.789062 323.902344 L 0.886719 323.902344 Z M 0.886719 0 " fill-opacity="1" fill-rule="nonzero"/></g></g></g></g></svg>